<svg width="1039" height="240" viewBox="0 0 1039 240" fill="none" xmlns="http://www.w3.org/2000/svg">
<path d="M886.471 217.972C878.561 217.972 870.843 213.958 866.5 206.833L846.319 173.737C843.868 169.72 845.143 164.479 849.157 162.028C853.176 159.578 858.417 160.85 860.868 164.868L881.047 197.964C882.737 200.73 886.322 201.746 889.211 200.282L964.702 161.926C968.897 159.798 974.025 161.469 976.157 165.663C978.287 169.858 976.615 174.987 972.421 177.12L896.929 215.472C893.595 217.166 890.013 217.972 886.471 217.972Z" fill="#00C08B"/>
<path d="M1017.44 118.281C1014.18 113.776 1009.16 110.758 1003.65 110L983.483 107.218C982.007 107.013 980.667 106.274 979.711 105.133L944.827 63.5777C941.172 59.2251 936.06 56.3854 930.433 55.5835L905.87 52.0886C904.899 51.9505 903.969 51.5717 903.178 50.9931L871.587 27.917C869.154 26.1381 866.437 24.8719 863.513 24.1539L840.665 18.5243C832.014 16.3911 822.808 19.4996 817.218 26.4426L792.824 56.7419C786.751 64.2842 786.058 74.9063 791.1 83.1725L829.902 146.813C831.45 149.35 834.111 150.793 836.874 150.894C836.98 150.898 861.968 150.898 861.968 150.898C865.972 150.898 869.438 148.106 870.292 144.195L875.845 118.767L889.759 165.554C890.808 169.08 894.002 171.536 897.681 171.64C897.762 171.643 897.846 171.643 897.928 171.643C901.508 171.643 904.717 169.4 905.938 166.018L915.36 139.916L916.639 144.151C917.725 147.749 921.04 150.209 924.795 150.209H953.055C957.761 150.209 961.574 146.393 961.574 141.688C961.574 136.982 957.761 133.166 953.055 133.166H931.121L924.234 110.364C923.17 106.849 919.976 104.41 916.303 104.312C912.623 104.238 909.31 106.48 908.064 109.936L898.706 135.864L882.745 82.194C881.638 78.4672 878.151 75.9704 874.264 76.1092C870.381 76.2511 867.084 79.0063 866.256 82.8051L855.109 133.859H841.961L805.647 74.3021C804.335 72.1511 804.518 69.3915 806.094 67.4279L830.492 37.1265C831.945 35.3227 834.338 34.5149 836.589 35.0686L859.437 40.6983C860.199 40.8841 860.904 41.2119 861.536 41.6746L893.127 64.7534C896.161 66.9728 899.739 68.4249 903.466 68.9581L928.03 72.4518C929.496 72.6609 930.824 73.4011 931.775 74.5335L966.661 116.089C970.339 120.47 975.483 123.314 981.153 124.095L1001.33 126.878C1002.59 127.054 1003.32 127.821 1003.64 128.267C1003.96 128.71 1004.46 129.64 1004.23 130.895L1002.11 142.459C1002.05 142.778 1001.84 143.057 1001.55 143.206L990.634 148.75C986.438 150.882 984.765 156.013 986.897 160.205C988.4 163.164 991.393 164.868 994.499 164.868C995.798 164.868 997.116 164.571 998.352 163.944L1009.27 158.395C1014.27 155.856 1017.86 151.048 1018.87 145.534L1020.99 133.973C1021.99 128.503 1020.7 122.785 1017.44 118.281Z" fill="#00416B"/>
<path d="M18.5113 201.444H21.2023L21.5845 205.145C23.3143 205.624 25.6193 205.909 27.4455 205.909C32.1079 205.909 34.751 204.039 34.751 199.908C34.751 195.969 32.3937 194.815 27.8801 193.326C23.2178 191.786 18.6559 190.152 18.6559 184.102C18.6559 178.338 22.8355 175.309 29.3685 175.309C32.2004 175.309 35.2295 175.888 37.438 176.56L37.3899 182.61H34.7026L34.3164 178.816C33.0171 178.531 30.9534 178.241 29.272 178.241C24.7585 178.241 22.4977 180.353 22.4977 183.861C22.4977 187.703 25.1405 188.761 29.272 190.152C34.075 191.741 38.5925 193.375 38.5925 199.666C38.5925 205.334 34.8917 208.842 27.5423 208.842C24.3239 208.842 20.7679 208.17 18.4146 207.402L18.5113 201.444Z" fill="#4D5858"/>
<path d="M55.5958 206.536C53.7254 207.783 51.6575 208.841 48.9221 208.841C44.8874 208.841 42.0513 206.585 42.0513 202.26C42.0513 197.119 45.8449 195.534 50.7967 195.534C52.2851 195.534 54.2523 195.679 55.2621 195.776V193.277C55.2621 190.156 54.4455 188.571 50.2659 188.571C48.3429 188.571 46.2793 188.905 44.3082 189.339L43.8777 186.696C46.1344 186.213 48.3429 185.88 50.6963 185.88C56.2718 185.88 58.6732 187.75 58.6732 192.891V205.865L61.0748 206.295V208.363H55.8855L55.5958 206.536ZM55.2621 198.225C54.3488 198.129 52.3819 198.032 51.2271 198.032C47.2366 198.032 45.5591 199.187 45.5591 202.115C45.5591 204.662 47.0475 206.198 49.7871 206.198C51.7059 206.198 53.5805 205.478 55.2621 204.376V198.225Z" fill="#4D5858"/>
<path d="M65.9762 188.856L63.5264 188.426V186.358H69.4357V201.105C69.4357 203.797 70.0591 206.15 73.1849 206.15C75.0072 206.15 77.1713 205.333 79.4763 204.086V188.856L77.0265 188.426V186.358H82.9358V205.864L85.4341 206.295V208.362H80.1L79.7661 206.488C77.3123 207.831 74.9105 208.841 72.1751 208.841C67.4202 208.841 65.9762 205.816 65.9762 201.443V188.856Z" fill="#4D5858"/>
<path d="M103.594 206.73C101.526 207.978 99.3179 208.842 96.8196 208.842C90.335 208.842 89.277 202.981 89.277 197.744C89.277 191.356 90.8622 185.881 97.4916 185.881C99.3179 185.881 101.478 186.311 103.305 187.369V178.286L100.806 177.855V175.788H106.764V205.862L109.214 206.296V208.36H103.831L103.594 206.73ZM103.305 189.722C101.289 188.906 99.5553 188.52 98.1151 188.52C94.1287 188.52 92.7849 191.307 92.7849 197.458C92.7849 202.261 93.6015 206.055 97.733 206.055C99.4627 206.055 101.43 205.383 103.305 204.277V189.722Z" fill="#4D5858"/>
<path d="M112.147 206.295L114.597 205.865V188.857L112.147 188.426V186.358H118.053V205.865L120.502 206.295V208.363H112.147V206.295ZM114.597 175.791H118.057V180.98H114.597V175.791Z" fill="#4D5858"/>
<path d="M156.486 207.785C153.746 208.408 150.817 208.843 147.981 208.843C136.931 208.843 135.109 202.165 135.109 192.361C135.109 182.18 137.076 175.309 148.078 175.309C151.011 175.309 153.987 175.788 156.341 176.415L156.196 182.61H153.509L153.171 178.672C151.731 178.435 150.001 178.238 148.368 178.238C140.008 178.238 138.95 183.19 138.95 192.317C138.95 200.532 139.815 205.769 148.561 205.769C151.059 205.769 153.553 205.335 155.91 204.9L156.486 207.785Z" fill="#4D5858"/>
<path d="M160.813 197.506C160.813 190.104 162.542 185.88 169.94 185.88C177.575 185.88 179.068 190.346 179.068 197.216C179.068 204.614 177.338 208.842 169.94 208.842C162.301 208.842 160.813 204.377 160.813 197.506ZM175.56 197.265C175.56 191.979 175.077 188.568 169.94 188.568C164.847 188.568 164.32 191.882 164.32 197.458C164.32 202.74 164.799 206.151 169.94 206.151C175.033 206.151 175.56 202.836 175.56 197.265Z" fill="#4D5858"/>
<path d="M183.15 206.295L185.6 205.861V188.857L183.15 188.426V186.359H188.432L188.677 187.847C190.596 186.841 192.853 185.88 195.4 185.88C197.946 185.88 199.483 186.793 200.347 188.185C202.367 187.03 204.865 185.88 207.749 185.88C212.504 185.88 213.703 189.002 213.703 192.747V205.861L216.394 206.295V208.363H210.247V193.612C210.247 190.78 209.716 188.619 206.643 188.619C204.768 188.619 202.894 189.335 201.116 190.2C201.261 190.973 201.357 191.882 201.357 192.747V205.861L204 206.295V208.363H197.898V193.612C197.898 190.78 197.371 188.619 194.297 188.619C192.567 188.619 190.741 189.287 189.06 190.055V205.861L191.509 206.295V208.363H183.15V206.295Z" fill="#4D5858"/>
<path d="M218.99 206.295L221.44 205.861V188.857L218.99 188.426V186.359H224.272L224.513 187.847C226.436 186.841 228.693 185.88 231.239 185.88C233.786 185.88 235.322 186.793 236.187 188.185C238.207 187.03 240.705 185.88 243.585 185.88C248.34 185.88 249.543 189.002 249.543 192.747V205.861L252.234 206.295V208.363H246.083V193.612C246.083 190.78 245.556 188.619 242.483 188.619C240.608 188.619 238.733 189.335 236.955 190.2C237.1 190.973 237.197 191.882 237.197 192.747V205.861L239.84 206.295V208.363H233.737V193.612C233.737 190.78 233.21 188.619 230.133 188.619C228.403 188.619 226.581 189.287 224.899 190.055V205.861L227.349 206.295V208.363H218.99V206.295Z" fill="#4D5858"/>
<path d="M254.829 206.295L257.279 205.865V188.857L254.829 188.426V186.358H260.735V205.865L263.189 206.295V208.363H254.829V206.295ZM257.279 175.791H260.739V180.98H257.279V175.791Z" fill="#4D5858"/>
<path d="M267.127 202.644H269.625L269.963 205.721C271.21 206.007 272.602 206.2 274.042 206.2C277.409 206.2 279.28 205.142 279.28 202.595C279.28 200.049 277.361 199.474 274.38 198.609C270.587 197.507 267.03 196.401 267.03 192.124C267.03 187.848 270.538 185.877 275.39 185.877C277.695 185.877 280.096 186.311 281.826 186.838L281.685 191.98H279.139L278.897 188.81C277.839 188.616 276.592 188.52 275.583 188.52C272.123 188.52 270.538 189.723 270.538 191.883C270.538 194.188 272.364 194.816 275.583 195.725C279.091 196.734 282.739 197.841 282.739 202.354C282.739 206.538 279.666 208.843 274.042 208.843C271.451 208.843 268.905 208.36 266.982 207.785L267.127 202.644Z" fill="#4D5858"/>
<path d="M287.16 202.644H289.658L289.996 205.721C291.243 206.007 292.635 206.2 294.079 206.2C297.442 206.2 299.317 205.142 299.317 202.595C299.317 200.049 297.394 199.474 294.413 198.609C290.62 197.507 287.064 196.401 287.064 192.124C287.064 187.848 290.571 185.877 295.423 185.877C297.728 185.877 300.134 186.311 301.859 186.838L301.718 191.98H299.172L298.931 188.81C297.873 188.616 296.626 188.52 295.616 188.52C292.156 188.52 290.571 189.723 290.571 191.883C290.571 194.188 292.398 194.816 295.616 195.725C299.124 196.734 302.772 197.841 302.772 202.354C302.772 206.538 299.699 208.843 294.079 208.843C291.485 208.843 288.938 208.36 287.016 207.785L287.16 202.644Z" fill="#4D5858"/>
<path d="M306.232 206.295L308.682 205.865V188.857L306.232 188.426V186.358H312.141V205.865L314.591 206.295V208.363H306.232V206.295ZM308.682 175.791H312.141V180.98H308.682V175.791Z" fill="#4D5858"/>
<path d="M318.484 197.506C318.484 190.104 320.214 185.88 327.612 185.88C335.251 185.88 336.739 190.346 336.739 197.216C336.739 204.614 335.01 208.842 327.612 208.842C319.973 208.842 318.484 204.377 318.484 197.506ZM333.232 197.265C333.232 191.979 332.749 188.568 327.612 188.568C322.519 188.568 321.992 191.882 321.992 197.458C321.992 202.74 322.471 206.151 327.612 206.151C332.705 206.151 333.232 202.836 333.232 197.265Z" fill="#4D5858"/>
<path d="M340.823 206.295L343.273 205.861V188.857L340.823 188.426V186.359H346.105L346.443 188.33C348.555 187.175 351.198 185.88 354.275 185.88C359.03 185.88 360.233 189.002 360.233 192.747V205.861L362.92 206.295V208.363H356.773V193.612C356.773 190.78 356.242 188.619 353.169 188.619C351.009 188.619 348.748 189.625 346.733 190.635V205.861L349.182 206.295V208.363H340.823V206.295Z" fill="#4D5858"/>
<path d="M376.373 206.295L378.822 205.861V189.05H375.556V186.982L378.822 186.358V181.459C378.822 177.086 381.127 175.308 385.548 175.308C386.606 175.308 387.805 175.405 388.911 175.598L388.622 178.241C387.757 178.096 386.655 177.999 385.886 177.999C382.905 177.999 382.282 179.347 382.282 181.459V186.358H387.375V189.05H382.282V205.861L385.404 206.295V208.363H376.373V206.295Z" fill="#4D5858"/>
<path d="M390.451 197.506C390.451 190.104 392.18 185.88 399.578 185.88C407.217 185.88 408.706 190.346 408.706 197.216C408.706 204.614 406.976 208.842 399.578 208.842C391.939 208.842 390.451 204.377 390.451 197.506ZM405.198 197.265C405.198 191.979 404.715 188.568 399.578 188.568C394.485 188.568 393.959 191.882 393.959 197.458C393.959 202.74 394.437 206.151 399.578 206.151C404.671 206.151 405.198 202.836 405.198 197.265Z" fill="#4D5858"/>
<path d="M412.789 206.295L415.239 205.861V188.857L412.789 188.426V186.358H418.071L418.505 189.384C420.666 187.079 422.589 186.025 424.894 186.025C425.425 186.025 425.952 186.069 426.434 186.169L426.289 189.243C425.759 189.098 425.231 189.05 424.753 189.05C422.54 189.05 420.569 190.055 418.699 191.789V205.861L421.82 206.295V208.363H412.789V206.295Z" fill="#4D5858"/>
<path d="M439.549 206.295L442.332 205.861V178.289L439.549 177.854V175.791H448.918V177.854L446.13 178.289V190.055H461.263V178.289L458.476 177.854V175.791H467.845V177.854L465.057 178.289V205.861L467.845 206.295V208.363H458.476V206.295L461.263 205.861V192.988H446.13V205.861L448.918 206.295V208.363H439.549V206.295Z" fill="#4D5858"/>
<path d="M488.455 207.691C486.243 208.314 483.556 208.841 481.058 208.841C474.472 208.841 472.071 204.807 472.071 197.791C472.071 190.779 473.756 185.88 480.913 185.88C487.059 185.88 488.934 189.287 488.934 195.534V198.467H475.53C475.631 203.555 477.067 206.15 481.633 206.15C483.556 206.15 485.812 205.72 487.88 205.092L488.455 207.691ZM485.619 195.92C485.619 191.499 485.136 188.571 480.816 188.571C477.115 188.571 475.772 190.634 475.53 195.92H485.619Z" fill="#4D5858"/>
<path d="M506.471 206.536C504.597 207.783 502.529 208.841 499.789 208.841C495.755 208.841 492.922 206.585 492.922 202.26C492.922 197.119 496.72 195.534 501.664 195.534C503.156 195.534 505.123 195.679 506.133 195.776V193.277C506.133 190.156 505.317 188.571 501.137 188.571C499.214 188.571 497.15 188.905 495.183 189.339L494.749 186.696C497.006 186.213 499.214 185.88 501.571 185.88C507.143 185.88 509.544 187.75 509.544 192.891V205.865L511.946 206.295V208.363H506.757L506.471 206.536ZM506.133 198.225C505.22 198.129 503.249 198.032 502.098 198.032C498.112 198.032 496.43 199.187 496.43 202.115C496.43 204.662 497.919 206.198 500.658 206.198C502.581 206.198 504.452 205.478 506.133 204.376V198.225Z" fill="#4D5858"/>
<path d="M514.687 206.295L517.137 205.861V178.289L514.687 177.854V175.791H520.596V205.861L523.046 206.295V208.363H514.687V206.295Z" fill="#4D5858"/>
<path d="M528.713 189.048H525.447V186.981L528.906 186.357L529.626 180.544H532.172V186.357H537.841V189.048H532.172V202.597C532.172 204.806 532.941 206.149 535.294 206.149C536.062 206.149 536.831 206.008 537.599 205.863L537.985 208.41C536.883 208.647 535.873 208.84 534.622 208.84C530.636 208.84 528.713 207.207 528.713 203.027V189.048Z" fill="#4D5858"/>
<path d="M540.196 206.295L542.646 205.861V178.289L540.196 177.854V175.791H546.105V188.185C548.169 187.079 550.715 185.88 553.648 185.88C558.402 185.88 559.605 189.001 559.605 192.747V205.861L562.293 206.295V208.363H556.146V193.611C556.146 190.779 555.619 188.619 552.542 188.619C550.381 188.619 548.12 189.625 546.105 190.635V205.861L548.555 206.295V208.363H540.196V206.295Z" fill="#4D5858"/>
<path d="M575.937 201.444H578.628L579.014 205.145C580.74 205.624 583.049 205.909 584.871 205.909C589.534 205.909 592.177 204.039 592.177 199.908C592.177 195.969 589.823 194.815 585.306 193.326C580.648 191.786 576.082 190.152 576.082 184.102C576.082 178.338 580.261 175.309 586.794 175.309C589.63 175.309 592.655 175.888 594.868 176.56L594.82 182.61H592.128L591.742 178.816C590.447 178.531 588.383 178.241 586.698 178.241C582.184 178.241 579.923 180.353 579.923 183.861C579.923 187.703 582.57 188.761 586.698 190.152C591.505 191.741 596.018 193.375 596.018 199.666C596.018 205.334 592.322 208.842 584.972 208.842C581.754 208.842 578.198 208.17 575.844 207.402L575.937 201.444Z" fill="#4D5858"/>
<path d="M599.094 215.904L601.544 215.473V188.859L599.094 188.425V186.357H604.38L604.622 188.091C606.685 186.791 608.942 185.878 611.489 185.878C617.832 185.878 618.983 191.498 618.983 197.025C618.983 203.365 617.446 208.84 610.768 208.84C608.942 208.84 606.782 208.41 605.004 207.4V215.473L607.55 215.904V217.971H599.094V215.904ZM605.004 204.998C606.971 205.815 608.705 206.197 610.189 206.197C614.228 206.197 615.475 203.365 615.475 197.218C615.475 192.508 614.755 188.666 610.531 188.666C608.894 188.666 606.83 189.289 605.004 190.392V204.998Z" fill="#4D5858"/>
<path d="M640.315 207.691C638.103 208.314 635.416 208.841 632.914 208.841C626.332 208.841 623.931 204.807 623.931 197.791C623.931 190.779 625.616 185.88 632.769 185.88C638.919 185.88 640.794 189.287 640.794 195.534V198.467H627.39C627.487 203.555 628.927 206.15 633.493 206.15C635.416 206.15 637.668 205.72 639.736 205.092L640.315 207.691ZM637.479 195.92C637.479 191.499 636.996 188.571 632.676 188.571C628.975 188.571 627.631 190.634 627.39 195.92H637.479Z" fill="#4D5858"/>
<path d="M661.406 207.785C659.676 208.312 656.743 208.843 654.294 208.843C647.185 208.843 645.504 204.47 645.504 197.507C645.504 190.395 647.234 185.881 654.68 185.881C656.985 185.881 659.676 186.311 661.213 186.742L661.068 192.076H658.381L658.139 188.902C657.081 188.713 655.931 188.568 654.82 188.568C649.78 188.568 649.012 191.69 649.012 197.265C649.012 203.03 649.828 206.152 655.018 206.152C656.936 206.152 659.048 205.721 660.831 205.238L661.406 207.785Z" fill="#4D5858"/>
<path d="M665.007 206.295L667.456 205.865V188.857L665.007 188.426V186.358H670.916V205.865L673.366 206.295V208.363H665.007V206.295ZM667.456 175.791H670.916V180.98H667.456V175.791Z" fill="#4D5858"/>
<path d="M690.083 206.536C688.213 207.783 686.145 208.841 683.406 208.841C679.371 208.841 676.539 206.585 676.539 202.26C676.539 197.119 680.332 195.534 685.28 195.534C686.772 195.534 688.74 195.679 689.75 195.776V193.277C689.75 190.156 688.933 188.571 684.753 188.571C682.83 188.571 680.763 188.905 678.796 189.339L678.361 186.696C680.622 186.213 682.83 185.88 685.184 185.88C690.759 185.88 693.161 187.75 693.161 192.891V205.865L695.562 206.295V208.363H690.373L690.083 206.536ZM689.75 198.225C688.836 198.129 686.865 198.032 685.714 198.032C681.724 198.032 680.047 199.187 680.047 202.115C680.047 204.662 681.535 206.198 684.274 206.198C686.193 206.198 688.068 205.478 689.75 204.376V198.225Z" fill="#4D5858"/>
<path d="M698.3 206.295L700.75 205.861V178.289L698.3 177.854V175.791H704.21V205.861L706.659 206.295V208.363H698.3V206.295Z" fill="#4D5858"/>
<path d="M712.329 189.048H709.063V186.981L712.522 186.357L713.243 180.544H715.789V186.357H721.457V189.048H715.789V202.597C715.789 204.806 716.557 206.149 718.911 206.149C719.679 206.149 720.447 206.008 721.216 205.863L721.602 208.41C720.499 208.647 719.49 208.84 718.239 208.84C714.252 208.84 712.329 207.207 712.329 203.027V189.048Z" fill="#4D5858"/>
<path d="M723.907 206.295L726.357 205.865V188.857L723.907 188.426V186.358H729.817V205.865L732.267 206.295V208.363H723.907V206.295ZM726.357 175.791H729.817V180.98H726.357V175.791Z" fill="#4D5858"/>
<path d="M752.492 207.691C750.279 208.314 747.592 208.841 745.094 208.841C738.513 208.841 736.112 204.807 736.112 197.791C736.112 190.779 737.793 185.88 744.949 185.88C751.096 185.88 752.971 189.287 752.971 195.534V198.467H739.567C739.667 203.555 741.104 206.15 745.669 206.15C747.592 206.15 749.849 205.72 751.917 205.092L752.492 207.691ZM749.656 195.92C749.656 191.499 749.173 188.571 744.853 188.571C741.152 188.571 739.808 190.634 739.567 195.92H749.656Z" fill="#4D5858"/>
<path d="M757.729 202.644H760.227L760.565 205.721C761.812 206.007 763.204 206.2 764.648 206.2C768.011 206.2 769.882 205.142 769.882 202.595C769.882 200.049 767.963 199.474 764.982 198.609C761.189 197.507 757.637 196.401 757.637 192.124C757.637 187.848 761.14 185.877 765.992 185.877C768.297 185.877 770.699 186.311 772.428 186.838L772.287 191.98H769.737L769.5 188.81C768.442 188.616 767.195 188.52 766.185 188.52C762.725 188.52 761.14 189.723 761.14 191.883C761.14 194.188 762.967 194.816 766.185 195.725C769.693 196.734 773.341 197.841 773.341 202.354C773.341 206.538 770.268 208.843 764.648 208.843C762.053 208.843 759.507 208.36 757.584 207.785L757.729 202.644Z" fill="#4D5858"/>
<path d="M170.394 137.559V150.528H175.084V153.883H157.022C153.442 153.807 151.539 152.161 151.322 148.959C151.29 148.408 151.274 147.757 151.274 147C151.274 146.24 151.286 145.464 151.31 144.663C151.334 143.866 151.366 143.094 151.414 142.342C151.463 141.59 151.523 140.942 151.604 140.395C151.837 138.878 152.392 137.607 153.269 136.581C154.146 135.56 155.341 134.835 156.857 134.413C158.688 133.914 160.454 133.834 162.159 134.168C163.865 134.506 165.474 135.306 166.991 136.573V134.204H171.987V137.559H170.394ZM167.015 141.429C167.015 141.115 166.81 140.745 166.403 140.314C165.997 139.884 165.482 139.466 164.858 139.059C164.231 138.653 163.535 138.295 162.771 137.993C162.002 137.688 161.262 137.503 160.542 137.438C158.631 137.33 157.223 137.716 156.318 138.601C155.413 139.486 154.894 140.95 154.769 143.002V147.41C154.769 148.05 154.81 148.573 154.886 148.979C154.963 149.386 155.111 149.703 155.333 149.933C155.55 150.158 155.856 150.315 156.246 150.399C156.64 150.488 157.155 150.528 157.798 150.528H167.015V141.429ZM156.459 126.858H159.931V130.354H156.459V126.858ZM161.761 126.858H165.233V130.354H161.761V126.858Z" fill="#4D5858"/>
<path d="M189.956 153.883H186.062C184.642 153.867 183.484 153.509 182.591 152.805C181.746 153.509 180.599 153.867 179.143 153.883H174.851V150.528H178.085C178.632 150.528 179.083 150.496 179.437 150.424C179.787 150.355 180.068 150.218 180.282 150.013C180.491 149.812 180.64 149.535 180.724 149.193C180.812 148.847 180.861 148.404 180.877 147.853V136.268H184.328V147.853C184.34 148.404 184.393 148.847 184.477 149.193C184.566 149.535 184.715 149.812 184.928 150.013C185.137 150.218 185.419 150.355 185.768 150.424C186.123 150.496 186.569 150.528 187.12 150.528H189.956V153.883ZM178.58 157.311H182.051V160.806H178.58V157.311ZM183.882 157.311H187.353V160.806H183.882V157.311Z" fill="#4D5858"/>
<path d="M189.746 150.53H208.113V143.213C208.097 142.179 207.912 141.286 207.55 140.538C207.192 139.786 206.698 139.186 206.074 138.74C205.446 138.297 204.71 138.008 203.857 137.871C203.005 137.742 202.079 137.778 201.078 137.98C200.402 138.12 199.67 138.322 198.869 138.591C198.073 138.853 197.308 139.138 196.572 139.432C195.836 139.729 195.168 140.019 194.565 140.289C193.965 140.562 193.523 140.779 193.241 140.936L191.785 137.581C193.117 136.785 194.569 136.097 196.15 135.53C197.731 134.959 199.324 134.564 200.937 134.343C202.47 134.142 203.885 134.186 205.193 134.484C206.496 134.782 207.631 135.3 208.592 136.033C209.558 136.769 210.314 137.702 210.869 138.836C211.424 139.967 211.718 141.262 211.75 142.718V150.53H216.465V153.885H189.721L189.746 150.53Z" fill="#4D5858"/>
<path d="M216.231 150.529H219.702V141.172H218.109V137.769H223.15V140.324C223.648 139.793 224.232 139.29 224.887 138.815C225.543 138.336 226.231 137.89 226.951 137.476C227.671 137.061 228.403 136.687 229.155 136.349C229.904 136.015 230.624 135.718 231.312 135.456C232 135.199 232.643 134.981 233.239 134.8C233.83 134.619 234.341 134.491 234.763 134.414C235.761 134.241 236.791 134.177 237.849 134.213C238.903 134.253 239.944 134.366 240.978 134.555C241.871 134.74 242.688 135.07 243.432 135.541C244.172 136.011 244.808 136.586 245.343 137.274C245.874 137.962 246.292 138.743 246.598 139.608C246.904 140.477 247.069 141.398 247.101 142.367C247.117 142.979 247.129 143.469 247.137 143.844C247.145 144.218 247.153 144.543 247.161 144.817C247.169 145.091 247.169 145.332 247.169 145.545C247.169 145.754 247.169 145.996 247.161 146.261C247.153 146.527 247.145 146.848 247.137 147.223C247.129 147.601 247.117 148.083 247.101 148.675C247.101 149.379 247.033 149.998 246.888 150.529H251.864V153.884H216.231V150.529ZM239.57 137.862C238.384 137.612 237.153 137.612 235.878 137.862C234.602 138.115 233.359 138.501 232.145 139.032C230.934 139.567 229.779 140.179 228.685 140.867C227.591 141.555 226.633 142.218 225.813 142.862C224.992 143.502 224.344 144.053 223.866 144.511C223.387 144.974 223.15 145.235 223.15 145.296V150.529H241.682C242.338 150.529 242.833 150.344 243.159 149.966C243.489 149.592 243.653 149.077 243.653 148.417C243.67 147.854 243.682 147.404 243.686 147.058C243.698 146.712 243.702 146.43 243.71 146.205C243.718 145.976 243.722 145.774 243.722 145.605C243.722 145.433 243.718 145.231 243.71 145.006C243.702 144.781 243.698 144.495 243.686 144.149C243.682 143.807 243.67 143.353 243.653 142.786C243.573 141.365 243.207 140.259 242.551 139.471C241.895 138.678 240.902 138.143 239.57 137.862Z" fill="#4D5858"/>
<path d="M251.63 150.53H253.576C254.124 150.53 254.574 150.494 254.924 150.426C255.278 150.353 255.56 150.217 255.769 150.011C255.982 149.81 256.131 149.537 256.215 149.195C256.3 148.849 256.352 148.402 256.368 147.855V126.346H254.771V122.918H259.816V148.628C259.784 150.333 259.325 151.629 258.432 152.51C257.539 153.395 256.276 153.853 254.63 153.885H251.63V150.53Z" fill="#4D5858"/>
<path d="M269.434 153.884H266.079V126.272H264.506V122.897H269.434V153.884Z" fill="#4D5858"/>
<path d="M290.874 136.292C290.122 137.277 289.523 138.327 289.068 139.446C288.614 140.564 288.312 141.811 288.151 143.187C287.918 145.488 288.328 147.274 289.386 148.545C290.44 149.824 292.117 150.484 294.418 150.528H316.68C317.227 150.528 317.678 150.496 318.028 150.424C318.378 150.355 318.659 150.219 318.873 150.013C319.082 149.812 319.231 149.535 319.319 149.193C319.404 148.847 319.456 148.404 319.472 147.853V137.627H317.875V134.204H322.92V148.629C322.887 150.335 322.425 151.63 321.535 152.511C320.642 153.396 319.375 153.851 317.734 153.883H293.433C292.258 153.867 291.184 153.686 290.207 153.332C289.229 152.982 288.372 152.479 287.636 151.832C286.9 151.184 286.301 150.387 285.83 149.45C285.359 148.513 285.041 147.459 284.868 146.284C284.744 145.391 284.687 144.494 284.704 143.585C284.72 142.68 284.816 141.779 284.985 140.89C285.222 139.623 285.585 138.44 286.079 137.346C286.57 136.252 287.194 135.21 287.942 134.224L290.874 136.292ZM300.187 130.708H303.659V134.204H300.187V130.708ZM305.489 130.708H308.961V134.204H305.489V130.708Z" fill="#4D5858"/>
<path d="M337.58 153.884H332.793C331.151 153.852 329.884 153.393 328.995 152.512C328.102 151.631 327.644 150.336 327.611 148.63V122.897H332.656V126.32H331.059V147.854C331.075 148.405 331.123 148.848 331.212 149.193C331.296 149.535 331.445 149.809 331.658 150.014C331.867 150.219 332.149 150.356 332.499 150.424C332.853 150.497 333.303 150.529 333.851 150.529H337.58V153.884Z" fill="#4D5858"/>
<path d="M337.346 150.529H340.818V141.172H339.22V137.769H344.265V140.324C344.764 139.793 345.343 139.29 346.003 138.815C346.658 138.336 347.346 137.89 348.066 137.476C348.782 137.061 349.519 136.687 350.271 136.349C351.019 136.015 351.739 135.718 352.427 135.456C353.115 135.199 353.759 134.981 354.35 134.8C354.945 134.619 355.452 134.491 355.879 134.414C356.876 134.241 357.906 134.177 358.964 134.213C360.018 134.253 361.06 134.366 362.094 134.555C362.987 134.74 363.803 135.07 364.544 135.541C365.288 136.011 365.923 136.586 366.458 137.274C366.985 137.962 367.408 138.743 367.709 139.608C368.015 140.477 368.184 141.398 368.216 142.367C368.232 142.979 368.244 143.469 368.253 143.844C368.257 144.218 368.265 144.543 368.277 144.817C368.281 145.091 368.285 145.332 368.285 145.545C368.285 145.754 368.281 145.996 368.277 146.261C368.265 146.527 368.257 146.848 368.253 147.223C368.244 147.601 368.232 148.083 368.216 148.675C368.216 149.379 368.144 149.998 368.003 150.529H372.975V153.884H337.346V150.529ZM360.686 137.862C359.495 137.612 358.264 137.612 356.993 137.862C355.718 138.115 354.475 138.501 353.26 139.032C352.049 139.567 350.895 140.179 349.8 140.867C348.706 141.555 347.749 142.218 346.928 142.862C346.107 143.502 345.456 144.053 344.981 144.511C344.502 144.974 344.265 145.235 344.265 145.296V150.529H362.798C363.453 150.529 363.948 150.344 364.274 149.966C364.604 149.592 364.769 149.077 364.769 148.417C364.785 147.854 364.793 147.404 364.801 147.058C364.813 146.712 364.817 146.43 364.825 146.205C364.833 145.976 364.837 145.774 364.837 145.605C364.837 145.433 364.833 145.231 364.825 145.006C364.817 144.781 364.813 144.495 364.801 144.149C364.793 143.807 364.785 143.353 364.769 142.786C364.688 141.365 364.322 140.259 363.663 139.471C363.007 138.678 362.013 138.143 360.686 137.862Z" fill="#4D5858"/>
<path d="M372.745 150.529H376.217V141.172H374.619V137.769H379.664V140.324C380.163 139.793 380.742 139.29 381.402 138.815C382.057 138.336 382.745 137.89 383.465 137.476C384.181 137.061 384.918 136.687 385.67 136.349C386.418 136.015 387.138 135.718 387.826 135.456C388.514 135.199 389.158 134.981 389.753 134.8C390.344 134.619 390.855 134.491 391.278 134.414C392.275 134.241 393.305 134.177 394.363 134.213C395.417 134.253 396.459 134.366 397.493 134.555C398.386 134.74 399.202 135.07 399.947 135.541C400.687 136.011 401.322 136.586 401.857 137.274C402.388 137.962 402.807 138.743 403.108 139.608C403.418 140.477 403.583 141.398 403.615 142.367C403.631 142.979 403.643 143.469 403.652 143.844C403.66 144.218 403.667 144.543 403.676 144.817C403.684 145.091 403.684 145.332 403.684 145.545C403.684 145.754 403.684 145.996 403.676 146.261C403.667 146.527 403.66 146.848 403.652 147.223C403.643 147.601 403.631 148.083 403.615 148.675C403.615 149.379 403.547 149.998 403.402 150.529H408.378V153.884H372.745V150.529ZM396.085 137.862C394.894 137.612 393.663 137.612 392.392 137.862C391.117 138.115 389.874 138.501 388.659 139.032C387.448 139.567 386.293 140.179 385.199 140.867C384.105 141.555 383.148 142.218 382.327 142.862C381.506 143.502 380.855 144.053 380.38 144.511C379.901 144.974 379.664 145.235 379.664 145.296V150.529H398.197C398.852 150.529 399.347 150.344 399.673 149.966C400.003 149.592 400.168 149.077 400.168 148.417C400.184 147.854 400.196 147.404 400.2 147.058C400.212 146.712 400.216 146.43 400.224 146.205C400.232 145.976 400.236 145.774 400.236 145.605C400.236 145.433 400.232 145.231 400.224 145.006C400.216 144.781 400.212 144.495 400.2 144.149C400.196 143.807 400.184 143.353 400.168 142.786C400.087 141.365 399.721 140.259 399.066 139.471C398.406 138.678 397.416 138.143 396.085 137.862Z" fill="#4D5858"/>
<path d="M408.169 150.528H426.509V143.211C426.492 142.177 426.308 141.288 425.95 140.536C425.587 139.783 425.097 139.188 424.469 138.741C423.846 138.295 423.105 138.005 422.253 137.873C421.4 137.74 420.475 137.776 419.473 137.977C418.801 138.122 418.065 138.323 417.268 138.589C416.472 138.854 415.704 139.136 414.967 139.433C414.235 139.731 413.563 140.017 412.964 140.29C412.361 140.564 411.922 140.777 411.641 140.934L410.185 137.583C411.512 136.782 412.968 136.099 414.549 135.527C416.126 134.956 417.723 134.562 419.332 134.341C420.865 134.14 422.285 134.188 423.592 134.485C424.896 134.779 426.03 135.298 426.991 136.03C427.953 136.77 428.713 137.704 429.268 138.834C429.823 139.968 430.117 141.264 430.145 142.72V150.528H434.86V153.883H408.145L408.169 150.528ZM415.181 126.858H418.652V130.354H415.181V126.858Z" fill="#4D5858"/>
<path d="M449.736 153.883H445.842C444.418 153.867 443.259 153.509 442.37 152.805C441.525 153.509 440.375 153.867 438.919 153.883H434.627V150.528H437.865C438.412 150.528 438.862 150.496 439.213 150.424C439.562 150.355 439.848 150.218 440.057 150.013C440.27 149.812 440.419 149.534 440.504 149.193C440.588 148.847 440.641 148.404 440.656 147.853V136.268H444.104V147.853C444.12 148.404 444.172 148.847 444.257 149.193C444.341 149.534 444.49 149.812 444.704 150.013C444.913 150.218 445.194 150.355 445.548 150.424C445.898 150.496 446.349 150.528 446.896 150.528H449.736V153.883ZM438.167 126.858H441.638V130.354H438.167V126.858ZM443.468 126.858H446.94V130.354H443.468V126.858Z" fill="#4D5858"/>
<path d="M462.847 153.884H459.609C458.189 153.868 457.03 153.506 456.141 152.806C455.292 153.506 454.142 153.868 452.69 153.884H449.5V150.529H451.632C452.183 150.529 452.629 150.497 452.983 150.424C453.333 150.356 453.615 150.219 453.828 150.014C454.038 149.809 454.186 149.535 454.271 149.194C454.359 148.848 454.411 148.405 454.428 147.854V122.917H457.875V147.854C457.891 148.405 457.939 148.848 458.028 149.194C458.113 149.535 458.261 149.809 458.474 150.014C458.684 150.219 458.965 150.356 459.315 150.424C459.669 150.497 460.12 150.529 460.667 150.529H462.847V153.884Z" fill="#4D5858"/>
<path d="M462.612 150.53H464.559C465.106 150.53 465.557 150.494 465.907 150.426C466.261 150.353 466.542 150.217 466.752 150.011C466.965 149.81 467.114 149.537 467.198 149.195C467.283 148.849 467.335 148.402 467.351 147.855V126.346H465.754V122.918H470.798V148.628C470.766 150.333 470.308 151.629 469.415 152.51C468.522 153.395 467.258 153.853 465.617 153.885H462.612V150.53Z" fill="#4D5858"/>
<path d="M505.189 137.559V150.528H509.88V153.883H491.818C488.237 153.807 486.335 152.161 486.117 148.959C486.085 148.408 486.069 147.757 486.069 147C486.069 146.24 486.081 145.464 486.105 144.663C486.129 143.866 486.166 143.094 486.214 142.342C486.258 141.59 486.319 140.942 486.399 140.395C486.632 138.878 487.187 137.607 488.064 136.581C488.941 135.56 490.136 134.835 491.657 134.413C493.483 133.914 495.249 133.834 496.955 134.168C498.66 134.506 500.269 135.306 501.79 136.573V134.204H506.782V137.559H505.189ZM501.81 141.429C501.81 141.115 501.609 140.745 501.203 140.314C500.796 139.884 500.277 139.466 499.654 139.059C499.026 138.653 498.33 138.295 497.566 137.993C496.798 137.688 496.058 137.503 495.337 137.438C493.431 137.33 492.023 137.716 491.114 138.601C490.209 139.486 489.69 140.95 489.565 143.002V147.41C489.565 148.05 489.605 148.573 489.686 148.979C489.762 149.386 489.911 149.703 490.128 149.933C490.349 150.158 490.651 150.315 491.045 150.399C491.436 150.488 491.95 150.528 492.594 150.528H501.81V141.429ZM491.254 126.858H494.726V130.354H491.254V126.858ZM496.556 126.858H500.028V130.354H496.556V126.858Z" fill="#4D5858"/>
<path d="M509.646 150.528H516.147C516.69 150.528 517.141 150.496 517.495 150.424C517.845 150.355 518.126 150.218 518.335 150.013C518.549 149.812 518.697 149.534 518.786 149.193C518.871 148.847 518.919 148.404 518.935 147.853V137.627H517.342V134.204H522.382V148.629C522.354 150.335 521.892 151.63 521.002 152.511C520.11 153.396 518.842 153.851 517.201 153.883H509.646V150.528ZM512.297 157.31H515.769V160.806H512.297V157.31ZM517.599 157.31H521.071V160.806H517.599V157.31Z" fill="#4D5858"/>
<path d="M528.085 138.729V134.204H541.67C543.761 134.204 545.29 134.678 546.252 135.636C547.213 136.589 547.696 138.106 547.696 140.186V153.883H527.075V150.532H544.248V140.793C544.232 140.153 544.18 139.63 544.095 139.224C544.007 138.818 543.854 138.5 543.629 138.271C543.399 138.045 543.09 137.893 542.7 137.816C542.309 137.736 541.794 137.699 541.151 137.699H531.581V138.729H528.085Z" fill="#4D5858"/>
<path d="M568.152 153.882H558.159C554.575 153.806 552.676 152.164 552.459 148.958C552.427 148.411 552.411 147.756 552.411 146.999C552.411 146.239 552.423 145.463 552.443 144.662C552.471 143.87 552.503 143.093 552.551 142.341C552.6 141.593 552.66 140.941 552.74 140.398C552.974 138.881 553.529 137.606 554.406 136.585C555.283 135.559 556.478 134.839 557.994 134.412C559.825 133.913 561.59 133.833 563.296 134.167C564.998 134.505 566.611 135.305 568.127 136.572V134.203H573.124V137.558H571.531V150.531H576.221V153.882H571.531V156.887C571.498 158.327 571.217 159.599 570.686 160.709C570.155 161.823 569.423 162.748 568.49 163.488C567.56 164.233 566.454 164.768 565.171 165.086C563.887 165.407 562.491 165.488 560.975 165.331C560.271 165.254 559.607 165.146 558.992 165.013C558.372 164.884 557.737 164.707 557.081 164.486L557.455 160.966C557.656 161.047 557.99 161.135 558.453 161.236C558.915 161.34 559.402 161.437 559.917 161.533C560.432 161.626 560.927 161.706 561.393 161.779C561.864 161.847 562.218 161.883 562.451 161.883C564.298 161.851 565.674 161.409 566.579 160.556C567.484 159.703 568.011 158.364 568.152 156.533V153.882ZM568.152 141.428C568.152 141.114 567.946 140.744 567.54 140.314C567.134 139.883 566.619 139.465 565.991 139.058C565.368 138.652 564.672 138.294 563.904 137.992C563.139 137.687 562.395 137.502 561.679 137.437C559.768 137.329 558.36 137.719 557.455 138.6C556.546 139.485 556.031 140.949 555.906 143.001V147.41C555.906 148.049 555.947 148.572 556.023 148.983C556.103 149.385 556.248 149.707 556.469 149.932C556.687 150.157 556.992 150.314 557.383 150.399C557.773 150.487 558.288 150.531 558.931 150.531H568.152V141.428Z" fill="#4D5858"/>
<path d="M600.055 150.531V153.886H575.987V150.531H582.998C579.873 146.151 578.215 143.343 578.026 142.108C577.902 141.355 577.845 140.688 577.849 140.104C577.861 139.517 577.922 138.99 578.038 138.52C578.155 138.053 578.332 137.626 578.565 137.252C578.803 136.874 579.084 136.524 579.414 136.198C580.742 134.867 582.978 134.203 586.12 134.203H589.193C592.339 134.203 594.572 134.867 595.903 136.198C596.229 136.524 596.527 136.89 596.792 137.289C597.058 137.687 597.263 138.129 597.404 138.612C597.545 139.099 597.605 139.63 597.593 140.209C597.577 140.784 597.464 141.42 597.263 142.108C597.074 142.699 596.591 143.705 595.811 145.121C595.026 146.537 593.852 148.339 592.291 150.531H600.055ZM593.791 141.263C593.916 140.466 593.739 139.807 593.264 139.284C592.786 138.757 592.102 138.363 591.213 138.093C591.008 138.033 590.794 137.972 590.565 137.92C590.34 137.864 590.058 137.824 589.72 137.791C589.386 137.763 588.968 137.731 588.465 137.711C587.966 137.687 587.339 137.675 586.591 137.675C585.762 137.675 584.929 137.799 584.093 138.053C583.256 138.302 582.548 138.713 581.968 139.292C581.703 139.557 581.542 139.851 581.486 140.173C581.434 140.495 581.446 140.857 581.522 141.263C581.602 141.653 582.134 142.619 583.119 144.151C584.105 145.684 585.581 147.808 587.552 150.531H587.717C591.655 145.117 593.683 142.027 593.791 141.263Z" fill="#4D5858"/>
<path d="M635.171 153.884H632.215C630.746 153.868 629.564 153.486 628.675 152.733C628.172 153.14 627.54 153.437 626.772 153.614C626.008 153.795 625.106 153.884 624.077 153.884H599.82V150.529H603.36V141.168H601.767V137.769H606.811V150.529H615.138V136.103H618.702V150.529H625.316C625.722 150.513 626.04 150.4 626.257 150.191C626.474 149.978 626.643 149.708 626.752 149.378C626.86 149.053 626.925 148.674 626.937 148.256C626.953 147.834 626.961 147.411 626.961 146.989V134.205H630.481V147.854C630.497 148.405 630.545 148.847 630.634 149.193C630.718 149.535 630.867 149.809 631.076 150.014C631.289 150.219 631.571 150.356 631.921 150.424C632.275 150.497 632.725 150.529 633.272 150.529H635.171V153.884Z" fill="#4D5858"/>
<path d="M634.938 150.53H636.885C637.432 150.53 637.883 150.494 638.233 150.426C638.587 150.353 638.868 150.217 639.077 150.011C639.291 149.81 639.436 149.537 639.524 149.195C639.608 148.849 639.661 148.402 639.677 147.855V126.346H638.08V122.918H643.124V148.628C643.092 150.333 642.634 151.629 641.741 152.51C640.848 153.395 639.58 153.853 637.939 153.885H634.938V150.53Z" fill="#4D5858"/>
<path d="M652.742 153.884H649.387V126.272H647.814V122.897H652.742V153.884Z" fill="#4D5858"/>
<path d="M687.133 137.559V150.528H691.823V153.883H673.761C670.177 153.807 668.279 152.161 668.061 148.959C668.029 148.408 668.013 147.757 668.013 147C668.013 146.24 668.025 145.464 668.049 144.663C668.073 143.866 668.105 143.094 668.154 142.342C668.202 141.59 668.262 140.942 668.343 140.395C668.576 138.878 669.131 137.607 670.008 136.581C670.881 135.56 672.08 134.835 673.596 134.413C675.427 133.914 677.193 133.834 678.898 134.168C680.6 134.506 682.213 135.306 683.73 136.573V134.204H688.726V137.559H687.133ZM683.754 141.429C683.754 141.115 683.549 140.745 683.143 140.314C682.736 139.884 682.221 139.466 681.594 139.059C680.97 138.653 680.274 138.295 679.506 137.993C678.742 137.688 677.997 137.503 677.281 137.438C675.371 137.33 673.963 137.716 673.058 138.601C672.148 139.486 671.633 140.95 671.509 143.002V147.41C671.509 148.05 671.549 148.573 671.625 148.979C671.702 149.386 671.855 149.703 672.072 149.933C672.289 150.158 672.595 150.315 672.985 150.399C673.375 150.488 673.894 150.528 674.534 150.528H683.754V141.429ZM673.198 126.858H676.67V130.354H673.198V126.858ZM678.5 126.858H681.972V130.354H678.5V126.858Z" fill="#4D5858"/>
<path d="M704.939 153.883H701.7C700.276 153.867 699.118 153.509 698.225 152.805C697.38 153.509 696.233 153.867 694.777 153.883H691.587V150.532H693.723C694.27 150.532 694.721 150.496 695.071 150.424C695.425 150.355 695.706 150.218 695.916 150.013C696.129 149.808 696.274 149.534 696.362 149.193C696.447 148.851 696.499 148.404 696.515 147.857V136.268H699.962V147.857C699.979 148.404 700.027 148.851 700.115 149.193C700.2 149.534 700.349 149.808 700.562 150.013C700.775 150.218 701.053 150.355 701.403 150.424C701.757 150.496 702.207 150.532 702.754 150.532H704.939V153.883ZM696.938 126.814C696.986 127.454 697.199 127.957 697.581 128.315C697.963 128.673 698.446 128.878 699.025 128.926H702.002V130.358H694.616V128.926H696C695.594 128.347 695.389 127.635 695.389 126.79V126.134C695.389 125.571 695.485 125.064 695.682 124.61C695.88 124.155 696.149 123.769 696.495 123.459C696.833 123.145 697.247 122.904 697.726 122.731C698.201 122.562 698.72 122.474 699.283 122.474C699.689 122.474 700.099 122.51 700.514 122.59C700.928 122.671 701.346 122.771 701.769 122.896V124.984H700.22V124.187C700.031 124.123 699.854 124.083 699.681 124.059C699.508 124.03 699.363 124.022 699.234 124.022C698.547 124.022 697.995 124.219 697.581 124.618C697.167 125.02 696.954 125.603 696.938 126.368V126.814Z" fill="#4D5858"/>
<path d="M719.81 153.883H715.916C714.492 153.867 713.333 153.509 712.444 152.805C711.599 153.509 710.449 153.867 708.992 153.883H704.7V150.528H707.939C708.486 150.528 708.936 150.496 709.286 150.424C709.64 150.355 709.922 150.218 710.131 150.013C710.344 149.812 710.493 149.535 710.577 149.193C710.662 148.847 710.714 148.404 710.73 147.853V136.268H714.178V147.853C714.194 148.404 714.246 148.847 714.331 149.193C714.419 149.535 714.564 149.812 714.777 150.013C714.986 150.218 715.268 150.355 715.622 150.424C715.972 150.496 716.422 150.528 716.97 150.528H719.81V153.883ZM708.429 157.311H711.901V160.806H708.429V157.311ZM713.731 157.311H717.203V160.806H713.731V157.311Z" fill="#4D5858"/>
<path d="M740.38 130.92C741.913 130.715 743.333 130.763 744.641 131.057C745.944 131.354 747.078 131.873 748.044 132.609C749.001 133.341 749.761 134.279 750.317 135.409C750.872 136.548 751.165 137.839 751.197 139.295V150.531H755.771V153.886H719.575V150.531H722.439C722.266 150.06 722.169 149.537 722.157 148.958C722.109 147.863 722.105 146.757 722.145 145.639C722.182 144.521 722.278 143.422 722.439 142.344C722.672 140.828 723.227 139.557 724.104 138.531C724.978 137.505 726.172 136.785 727.689 136.363C729.193 135.956 730.629 135.819 732.005 135.964L731.237 134.158C732.56 133.358 734.016 132.678 735.597 132.102C737.174 131.531 738.771 131.137 740.38 130.92ZM737.85 143.374C737.85 143.06 737.645 142.69 737.239 142.26C736.832 141.829 736.314 141.411 735.69 141.005C735.062 140.598 734.367 140.244 733.602 139.939C732.838 139.633 732.094 139.448 731.374 139.388C729.467 139.279 728.059 139.665 727.15 140.546C726.245 141.431 725.73 142.9 725.605 144.947C725.589 145.305 725.581 145.711 725.581 146.166C725.581 146.62 725.589 147.035 725.605 147.409C725.605 148.049 725.637 148.571 725.709 148.97C725.778 149.368 725.915 149.682 726.12 149.907C726.321 150.136 726.611 150.293 726.989 150.378C727.363 150.462 727.846 150.511 728.441 150.531H737.85V143.374ZM741.225 150.531H747.561V139.786C747.545 138.756 747.356 137.863 746.998 137.111C746.64 136.363 746.145 135.763 745.522 135.317C744.894 134.87 744.154 134.58 743.305 134.452C742.448 134.315 741.523 134.351 740.525 134.556C740.071 134.649 739.588 134.774 739.081 134.93C738.57 135.087 738.059 135.256 737.544 135.433C737.03 135.614 736.519 135.803 736.02 136.009C735.517 136.21 735.05 136.407 734.612 136.596C735.75 137.05 736.824 137.69 737.826 138.519C738.232 138.832 738.639 139.158 739.045 139.504C739.451 139.846 739.813 140.216 740.135 140.607C740.457 141.001 740.718 141.411 740.919 141.85C741.125 142.288 741.225 142.759 741.225 143.257V150.531Z" fill="#4D5858"/>
<path d="M755.536 150.53H757.483C758.03 150.53 758.481 150.494 758.831 150.426C759.185 150.353 759.466 150.217 759.676 150.011C759.889 149.81 760.034 149.537 760.122 149.195C760.206 148.849 760.259 148.402 760.275 147.855V126.346H758.678V122.918H763.722V148.628C763.69 150.333 763.232 151.629 762.339 152.51C761.45 153.395 760.182 153.853 758.541 153.885H755.536V150.53Z" fill="#4D5858"/>
<path d="M773.341 153.884H769.986V126.272H768.417V122.897H773.341V153.884Z" fill="#4D5858"/>
</svg>
